<svg width="14" height="12" viewBox="0 0 14 12" fill="none" xmlns="http://www.w3.org/2000/svg">
<path d="M6.25222 5.85782L0.699346 1.2968C0.570811 1.19131 0.5 1.05049 0.5 0.900338C0.5 0.750184 0.570811 0.609363 0.699346 0.503873L1.10818 0.167985C1.37459 -0.0505788 1.80757 -0.0505788 2.07357 0.167985L6.73654 3.99798L11.4047 0.163736C11.5332 0.0582448 11.7046 -1.28492e-07 11.8873 -1.30587e-07C12.0702 -1.32685e-07 12.2415 0.0582448 12.3702 0.163736L12.7789 0.499623C12.9074 0.605197 12.9782 0.745935 12.9782 0.896088C12.9782 1.04624 12.9074 1.18706 12.7789 1.29255L7.22095 5.85782C7.09201 5.96356 6.91985 6.02164 6.73684 6.02131C6.55312 6.02164 6.38106 5.96356 6.25222 5.85782Z" fill="white"/>
<path d="M6.25222 11.8368L0.699346 7.27581C0.570811 7.17032 0.5 7.0295 0.5 6.87934C0.5 6.72919 0.570811 6.58837 0.699346 6.48288L1.10818 6.14699C1.37459 5.92843 1.80757 5.92843 2.07357 6.14699L6.73654 9.97699L11.4047 6.14274C11.5332 6.03725 11.7046 5.979 11.8873 5.979C12.0702 5.979 12.2415 6.03725 12.3702 6.14274L12.7789 6.47863C12.9074 6.5842 12.9782 6.72494 12.9782 6.87509C12.9782 7.02525 12.9074 7.16607 12.7789 7.27156L7.22095 11.8368C7.09201 11.9426 6.91985 12.0006 6.73684 12.0003C6.55312 12.0006 6.38106 11.9426 6.25222 11.8368Z" fill="white"/>
</svg>
